<?xml version="1.0" encoding="UTF-8"?>
<svg id="Layer_1" data-name="Layer 1" xmlns="http://www.w3.org/2000/svg" viewBox="0 0 850.39 850.39">
  <defs>
    <style>
      .cls-1 {
        fill: #fff;
      }
    </style>
  </defs>
  <g>
    <path class="cls-1" d="m125.21,360.82c6.33,0,11.49.88,15.48,2.63,3.99,1.75,6.93,3.97,8.82,6.66,1.89,2.68,2.87,5.44,2.94,8.25l-21.88,6.4c0-2.75-.33-4.76-.98-6.04-.66-1.27-1.77-1.91-3.35-1.91-1.38,0-2.49.33-3.35.98-.86.66-1.48,1.79-1.86,3.41-.38,1.62-.57,3.87-.57,6.76s.26,5.19.77,6.71c.52,1.51,1.22,2.53,2.12,3.04.89.52,1.89.77,2.99.77,1.03,0,1.86-.26,2.48-.77.62-.52,1.12-1.29,1.5-2.32.38-1.03.6-2.27.67-3.71l21.26,6.6c-.07,2.89-1.17,5.56-3.3,8-2.13,2.44-5.11,4.42-8.93,5.93s-8.34,2.27-13.57,2.27c-6.19,0-11.52-1.05-16-3.15-4.47-2.1-7.89-5.14-10.27-9.13-2.37-3.99-3.56-8.84-3.56-14.55s1.19-10.56,3.56-14.55c2.37-3.99,5.71-7.03,10.01-9.13,4.3-2.1,9.3-3.15,15.01-3.15Z"/>
    <path class="cls-1" d="m184.34,360.82c5.78,0,10.82,1.05,15.12,3.15,4.3,2.1,7.65,5.14,10.06,9.13,2.41,3.99,3.61,8.84,3.61,14.55s-1.21,10.47-3.61,14.5c-2.41,4.02-5.76,7.09-10.06,9.18-4.3,2.1-9.34,3.15-15.12,3.15s-10.73-1.05-15.07-3.15c-4.33-2.1-7.71-5.16-10.11-9.18-2.41-4.02-3.61-8.86-3.61-14.5s1.2-10.56,3.61-14.55c2.41-3.99,5.78-7.03,10.11-9.13s9.36-3.15,15.07-3.15Zm0,15.99c-1.03,0-1.93.29-2.68.88-.76.58-1.33,1.67-1.7,3.25-.38,1.58-.57,3.82-.57,6.71s.19,5.11.57,6.66c.38,1.55.94,2.63,1.7,3.25.76.62,1.65.93,2.68.93,1.1,0,2.01-.31,2.73-.93s1.27-1.7,1.65-3.25c.38-1.55.57-3.77.57-6.66s-.19-5.12-.57-6.71c-.38-1.58-.93-2.67-1.65-3.25-.72-.58-1.63-.88-2.73-.88Z"/>
    <path class="cls-1" d="m219.21,413.45v-51.6h21.36l.52,11.25c1.51-3.92,3.78-6.95,6.81-9.08,3.03-2.13,6.74-3.2,11.15-3.2,3.92,0,7.17.89,9.75,2.68,2.58,1.79,4.42,4.33,5.52,7.64,1.1-2.2,2.46-4.08,4.08-5.62,1.62-1.55,3.51-2.72,5.68-3.51,2.17-.79,4.59-1.19,7.27-1.19,3.44,0,6.36.67,8.77,2.01,2.41,1.34,4.25,3.3,5.52,5.88,1.27,2.58,1.91,5.73,1.91,9.44v35.29h-23.73v-29.1c0-2.34-.29-3.92-.88-4.75-.58-.83-1.5-1.24-2.73-1.24-1.1,0-2.03.28-2.79.83-.76.55-1.31,1.43-1.65,2.63-.34,1.21-.52,2.74-.52,4.59v27.04h-23.73v-29.1c0-2.34-.29-3.92-.88-4.75-.59-.83-1.5-1.24-2.74-1.24-1.1,0-2.03.28-2.79.83-.76.55-1.31,1.43-1.65,2.63-.35,1.21-.52,2.74-.52,4.59v27.04h-23.73Z"/>
    <path class="cls-1" d="m315.49,435.12v-73.27h21.57l1.13,22.7-2.68-2.68c.21-4.06,1.07-7.67,2.58-10.83,1.51-3.16,3.61-5.66,6.29-7.48,2.68-1.82,5.85-2.73,9.49-2.73,4.26,0,7.86,1.05,10.78,3.15,2.92,2.1,5.14,5.11,6.66,9.03,1.51,3.92,2.27,8.7,2.27,14.34s-.77,10.59-2.32,14.65c-1.55,4.06-3.8,7.16-6.76,9.29-2.96,2.13-6.54,3.2-10.73,3.2-5.02,0-8.87-1.63-11.56-4.9-2.68-3.27-4.37-7.38-5.06-12.33l2.06-3.1v40.97h-23.73Zm28.79-37.36c1.65,0,2.96-.67,3.92-2.01.96-1.34,1.44-4.04,1.44-8.1s-.48-6.78-1.44-8.15c-.96-1.38-2.27-2.06-3.92-2.06-1.03,0-1.93.36-2.68,1.08-.76.72-1.34,1.82-1.75,3.3-.41,1.48-.62,3.42-.62,5.83,0,2.2.17,4.06.52,5.57.34,1.51.89,2.65,1.65,3.41.76.76,1.72,1.13,2.89,1.13Z"/>
    <path class="cls-1" d="m407.75,414.48c-6.19,0-11.49-1.05-15.89-3.15-4.4-2.1-7.78-5.14-10.11-9.13-2.34-3.99-3.51-8.84-3.51-14.55s1.19-10.56,3.56-14.55c2.37-3.99,5.71-7.03,10.01-9.13,4.3-2.1,9.3-3.15,15.01-3.15s10.82,1.05,14.91,3.15c4.09,2.1,7.21,5.04,9.34,8.82,2.13,3.78,3.2,8.19,3.2,13.21,0,1.1-.05,2.24-.15,3.41-.1,1.17-.22,2.1-.36,2.79h-40.25v-8.77h29.93l-11.25,4.44c0-3.71-.33-6.54-.98-8.46-.65-1.92-2.08-2.89-4.28-2.89-1.45,0-2.63.35-3.56,1.03-.93.69-1.6,1.88-2.01,3.56-.41,1.69-.62,4.01-.62,6.96s.27,5.21.83,6.76c.55,1.55,1.36,2.58,2.42,3.1,1.07.52,2.42.77,4.08.77,1.79,0,3.18-.39,4.18-1.19,1-.79,1.67-1.87,2.01-3.25l19.09,5.16c-.76,3.37-2.44,6.18-5.06,8.41-2.62,2.24-5.73,3.91-9.34,5-3.61,1.1-7.34,1.65-11.2,1.65Z"/>
    <path class="cls-1" d="m481.01,361.86v16h-44.68v-16h44.68Zm-13-17.54v48.09c0,2.34.5,4.01,1.5,5,1,1,2.56,1.5,4.7,1.5,1.38,0,2.58-.1,3.61-.31,1.03-.21,2-.55,2.89-1.03l1.03,13.42c-1.72,1.1-4.06,1.96-7.02,2.58-2.96.62-5.75.93-8.36.93-4.82,0-8.86-.6-12.12-1.81-3.27-1.2-5.75-3.15-7.43-5.83-1.69-2.68-2.53-6.26-2.53-10.73v-45.2l23.73-6.6Z"/>
    <path class="cls-1" d="m513.93,414.48c-6.19,0-11.49-1.05-15.89-3.15-4.4-2.1-7.78-5.14-10.11-9.13-2.34-3.99-3.51-8.84-3.51-14.55s1.19-10.56,3.56-14.55c2.37-3.99,5.71-7.03,10.01-9.13,4.3-2.1,9.3-3.15,15.01-3.15s10.82,1.05,14.91,3.15c4.09,2.1,7.21,5.04,9.34,8.82,2.13,3.78,3.2,8.19,3.2,13.21,0,1.1-.05,2.24-.16,3.41-.1,1.17-.22,2.1-.36,2.79h-40.25v-8.77h29.93l-11.25,4.44c0-3.71-.33-6.54-.98-8.46-.66-1.92-2.08-2.89-4.28-2.89-1.44,0-2.63.35-3.56,1.03-.93.69-1.6,1.88-2.01,3.56-.41,1.69-.62,4.01-.62,6.96s.27,5.21.83,6.76c.55,1.55,1.36,2.58,2.43,3.1,1.07.52,2.42.77,4.08.77,1.79,0,3.18-.39,4.18-1.19,1-.79,1.67-1.87,2.01-3.25l19.09,5.16c-.76,3.37-2.44,6.18-5.06,8.41-2.62,2.24-5.73,3.91-9.34,5-3.61,1.1-7.34,1.65-11.2,1.65Z"/>
    <path class="cls-1" d="m546.23,413.45v-51.6h21.36l1.03,21.88-2.37-2.58c.48-4.26,1.55-7.91,3.2-10.94,1.65-3.03,3.87-5.35,6.66-6.97,2.79-1.62,6.1-2.42,9.96-2.42,3.44,0,6.36.67,8.77,2.01,2.41,1.34,4.25,3.3,5.52,5.88,1.27,2.58,1.91,5.73,1.91,9.44v35.29h-23.73v-29.41c0-2.2-.31-3.7-.93-4.49-.62-.79-1.55-1.19-2.79-1.19-1.1,0-2.01.26-2.73.77s-1.26,1.36-1.6,2.53c-.34,1.17-.52,2.68-.52,4.54v27.24h-23.73Z"/>
    <path class="cls-1" d="m636.83,360.82c6.33,0,11.49.88,15.48,2.63,3.99,1.75,6.93,3.97,8.82,6.66,1.89,2.68,2.87,5.44,2.94,8.25l-21.88,6.4c0-2.75-.33-4.76-.98-6.04-.65-1.27-1.77-1.91-3.35-1.91-1.38,0-2.49.33-3.35.98-.86.66-1.48,1.79-1.86,3.41-.38,1.62-.57,3.87-.57,6.76s.26,5.19.77,6.71c.52,1.51,1.22,2.53,2.12,3.04.89.52,1.89.77,2.99.77,1.03,0,1.86-.26,2.48-.77.62-.52,1.12-1.29,1.5-2.32.38-1.03.6-2.27.67-3.71l21.26,6.6c-.07,2.89-1.17,5.56-3.3,8-2.13,2.44-5.11,4.42-8.93,5.93-3.82,1.51-8.34,2.27-13.57,2.27-6.19,0-11.52-1.05-16-3.15-4.47-2.1-7.89-5.14-10.27-9.13-2.37-3.99-3.56-8.84-3.56-14.55s1.19-10.56,3.56-14.55c2.37-3.99,5.71-7.03,10.01-9.13,4.3-2.1,9.3-3.15,15.01-3.15Z"/>
    <path class="cls-1" d="m696.68,414.48c-6.19,0-11.49-1.05-15.89-3.15-4.4-2.1-7.78-5.14-10.11-9.13-2.34-3.99-3.51-8.84-3.51-14.55s1.19-10.56,3.56-14.55c2.37-3.99,5.71-7.03,10.01-9.13,4.3-2.1,9.3-3.15,15.01-3.15s10.82,1.05,14.91,3.15c4.09,2.1,7.21,5.04,9.34,8.82,2.13,3.78,3.2,8.19,3.2,13.21,0,1.1-.05,2.24-.15,3.41-.1,1.17-.22,2.1-.36,2.79h-40.25v-8.77h29.93l-11.25,4.44c0-3.71-.33-6.54-.98-8.46-.65-1.92-2.08-2.89-4.28-2.89-1.45,0-2.63.35-3.56,1.03-.93.69-1.6,1.88-2.01,3.56-.41,1.69-.62,4.01-.62,6.96s.27,5.21.83,6.76c.55,1.55,1.36,2.58,2.42,3.1,1.07.52,2.42.77,4.08.77,1.79,0,3.18-.39,4.18-1.19,1-.79,1.67-1.87,2.01-3.25l19.09,5.16c-.76,3.37-2.44,6.18-5.06,8.41-2.62,2.24-5.73,3.91-9.34,5-3.61,1.1-7.34,1.65-11.2,1.65Z"/>
  </g>
  <rect class="cls-1" x="735.55" y="391.13" width="15.8" height="15.8"/>
  <g>
    <path class="cls-1" d="m316.62,496.52v-50.32h26.28c6.19.05,10.77,1.21,13.74,3.47,2.97,2.26,4.45,5.6,4.45,10.03,0,2.9-.86,5.39-2.58,7.47-1.72,2.08-4.41,3.41-8.05,3.96v.08c4.04.51,7.04,1.83,8.98,3.96,1.95,2.13,2.92,4.78,2.92,7.93,0,4.37-1.49,7.7-4.45,9.99-2.97,2.29-7.45,3.43-13.44,3.43h-27.85Zm14.67-30.34h8.53c3.74,0,5.61-1.5,5.61-4.5s-1.87-4.5-5.61-4.5h-8.53v9Zm0,19.82h9.66c1.95,0,3.39-.39,4.34-1.18.95-.79,1.42-1.92,1.42-3.39s-.47-2.59-1.42-3.35c-.95-.76-2.4-1.14-4.34-1.14h-9.66v9.07Z"/>
    <path class="cls-1" d="m407.8,458.4l-12.2,35.83c-1.5,4.57-3.18,8.22-5.05,10.94-1.87,2.72-4.08,4.69-6.63,5.91-2.54,1.22-5.64,1.83-9.28,1.83-2.25,0-4.29-.23-6.14-.69-1.85-.46-3.44-1.07-4.79-1.83l2.84-9.99c.85.51,1.76.89,2.73,1.14.97.25,2.28.38,3.93.38,1.55,0,2.74-.2,3.59-.61.85-.41,1.47-1.14,1.87-2.21l.52-1.45-4.49-10.83-10.93-28.44h16.54l4.49,20.66,1.57,8.46,1.87-8.69,4.64-20.43h14.9Z"/>
    <path class="cls-1" d="m475.4,446.2v29.2c0,7.32-1.92,12.79-5.76,16.43-3.84,3.63-9.58,5.45-17.22,5.45s-13.45-1.82-17.29-5.45c-3.84-3.63-5.76-9.11-5.76-16.43v-29.2h15.35v30.04c0,3.05.65,5.34,1.95,6.86,1.3,1.53,3.22,2.29,5.76,2.29s4.47-.76,5.76-2.29c1.3-1.52,1.95-3.81,1.95-6.86v-30.04h15.27Z"/>
    <path class="cls-1" d="m482.59,496.52v-38.12h13.62l.37,7.85c1.1-2.79,2.74-4.93,4.94-6.4,2.2-1.47,4.82-2.21,7.86-2.21,2.79,0,5.18.65,7.15,1.94s3.38,3.19,4.23,5.68c.8-1.68,1.81-3.07,3.03-4.19,1.22-1.12,2.65-1.97,4.27-2.55,1.62-.58,3.36-.88,5.2-.88,2.49,0,4.65.5,6.48,1.49,1.82.99,3.23,2.46,4.23,4.42,1,1.96,1.5,4.36,1.5,7.21v25.77h-15.12v-21.96c0-2.03-.33-3.44-.97-4.23-.65-.79-1.57-1.18-2.77-1.18-1,0-1.88.25-2.66.76-.77.51-1.36,1.31-1.76,2.4-.4,1.09-.6,2.45-.6,4.08v20.13h-15.12v-21.96c0-2.03-.33-3.44-.97-4.23-.65-.79-1.57-1.18-2.77-1.18-.95,0-1.81.25-2.58.76-.77.51-1.37,1.31-1.8,2.4-.42,1.09-.64,2.48-.64,4.15v20.05h-15.12Z"/>
    <path class="cls-1" d="m565.09,497.28c-2.54,0-4.75-.45-6.62-1.33-1.87-.89-3.32-2.31-4.34-4.27-1.02-1.96-1.54-4.51-1.54-7.66v-25.62h15.12v22.03c0,1.93.35,3.3,1.05,4.12.7.81,1.72,1.22,3.07,1.22.7,0,1.35-.14,1.95-.42.6-.28,1.11-.7,1.54-1.26.42-.56.75-1.3.97-2.21.22-.92.34-1.98.34-3.2v-20.28h15.12v38.12h-13.55l-.37-7.62c-1.15,2.8-2.8,4.89-4.94,6.29-2.15,1.4-4.74,2.1-7.79,2.1Z"/>
    <path class="cls-1" d="m599.07,496.52v-38.12h13.55l.45,8.92c.85-3,2.18-5.36,4-7.09,1.82-1.73,4.2-2.59,7.15-2.59,1.05,0,1.9.09,2.55.27.65.18,1.12.39,1.42.65l-1.35,12.5c-.5-.2-1.15-.38-1.95-.53-.8-.15-1.72-.23-2.77-.23-1.5,0-2.84.28-4.04.84-1.2.56-2.15,1.38-2.84,2.48-.7,1.09-1.05,2.48-1.05,4.16v18.75h-15.12Z"/>
    <path class="cls-1" d="m652.15,472.51c0-1.42-.36-2.55-1.09-3.39s-1.78-1.26-3.18-1.26c-1.3,0-2.41.36-3.33,1.07-.92.71-1.51,2.06-1.76,4.04l-12.8-2.36c.5-3.96,2.32-7.11,5.46-9.45,3.14-2.34,7.64-3.51,13.48-3.51,3.99,0,7.35.57,10.07,1.72,2.72,1.14,4.75,2.81,6.1,4.99,1.35,2.19,2.02,4.8,2.02,7.85v12.81c0,2.03.92,3.05,2.77,3.05.75,0,1.32-.1,1.72-.3l-.75,8.31c-1.65.81-3.69,1.22-6.14,1.22-2.15,0-4.04-.34-5.69-1.03-1.65-.69-2.95-1.69-3.89-3.01-.95-1.32-1.42-3.05-1.42-5.18v-.61l1.5-.23c0,2.03-.61,3.81-1.83,5.34-1.22,1.53-2.82,2.69-4.79,3.51-1.97.81-4.16,1.22-6.55,1.22-2.6,0-4.82-.41-6.66-1.22-1.85-.81-3.26-1.98-4.23-3.51-.97-1.52-1.46-3.38-1.46-5.56,0-2.79.83-5.08,2.51-6.86,1.67-1.78,4.2-3,7.6-3.66l13.55-2.9-.08,6.48-5.54,1.3c-1.25.25-2.16.67-2.73,1.26-.57.58-.86,1.38-.86,2.4s.32,1.71.97,2.25c.65.53,1.45.8,2.4.8.65,0,1.25-.1,1.8-.3.55-.2,1.04-.51,1.46-.92.42-.41.76-.91,1.01-1.52.25-.61.37-1.35.37-2.21v-10.6Z"/>
    <path class="cls-1" d="m697.67,458.4h15.65l-12.73,38.12h-18.49l-12.73-38.12h15.8l6.21,27.98,6.29-27.98Z"/>
    <path class="cls-1" d="m736.37,472.51c0-1.42-.36-2.55-1.09-3.39s-1.78-1.26-3.18-1.26c-1.3,0-2.41.36-3.33,1.07-.92.71-1.51,2.06-1.76,4.04l-12.8-2.36c.5-3.96,2.32-7.11,5.46-9.45,3.14-2.34,7.64-3.51,13.48-3.51,3.99,0,7.35.57,10.07,1.72,2.72,1.14,4.75,2.81,6.1,4.99,1.35,2.19,2.02,4.8,2.02,7.85v12.81c0,2.03.92,3.05,2.77,3.05.75,0,1.32-.1,1.72-.3l-.75,8.31c-1.65.81-3.69,1.22-6.14,1.22-2.15,0-4.04-.34-5.69-1.03-1.65-.69-2.95-1.69-3.89-3.01-.95-1.32-1.42-3.05-1.42-5.18v-.61l1.5-.23c0,2.03-.61,3.81-1.83,5.34-1.22,1.53-2.82,2.69-4.79,3.51-1.97.81-4.16,1.22-6.55,1.22-2.6,0-4.82-.41-6.66-1.22-1.85-.81-3.26-1.98-4.23-3.51-.97-1.52-1.46-3.38-1.46-5.56,0-2.79.83-5.08,2.51-6.86,1.67-1.78,4.2-3,7.6-3.66l13.55-2.9-.08,6.48-5.54,1.3c-1.25.25-2.16.67-2.73,1.26-.57.58-.86,1.38-.86,2.4s.32,1.71.97,2.25c.65.53,1.45.8,2.4.8.65,0,1.25-.1,1.8-.3.55-.2,1.04-.51,1.46-.92.42-.41.76-.91,1.01-1.52.25-.61.37-1.35.37-2.21v-10.6Z"/>
  </g>
</svg>