<?xml version="1.0" encoding="UTF-8"?>
<svg id="Layer_1" data-name="Layer 1" xmlns="http://www.w3.org/2000/svg" viewBox="0 0 850.39 850.39">
  <defs>
    <style>
      .cls-1 {
        fill: #fff;
      }
    </style>
  </defs>
  <rect class="cls-1" x="737.79" y="428" width="15.8" height="15.8"/>
  <g>
    <path class="cls-1" d="m127.45,397.7c6.33,0,11.49.88,15.48,2.63,3.99,1.75,6.93,3.97,8.82,6.66,1.89,2.68,2.87,5.44,2.94,8.25l-21.88,6.4c0-2.75-.33-4.76-.98-6.04-.65-1.27-1.77-1.91-3.35-1.91-1.38,0-2.49.33-3.35.98-.86.66-1.48,1.79-1.86,3.41-.38,1.62-.57,3.87-.57,6.76s.26,5.19.77,6.71c.52,1.51,1.22,2.53,2.12,3.04.89.52,1.89.77,2.99.77,1.03,0,1.86-.26,2.48-.77.62-.52,1.12-1.29,1.5-2.32.38-1.03.6-2.27.67-3.71l21.26,6.6c-.07,2.89-1.17,5.56-3.3,8-2.13,2.44-5.11,4.42-8.93,5.93-3.82,1.51-8.34,2.27-13.57,2.27-6.19,0-11.52-1.05-16-3.15-4.47-2.1-7.89-5.14-10.27-9.13-2.37-3.99-3.56-8.84-3.56-14.55s1.19-10.56,3.56-14.55c2.37-3.99,5.71-7.03,10.01-9.13,4.3-2.1,9.3-3.15,15.01-3.15Z"/>
    <path class="cls-1" d="m186.58,397.7c5.78,0,10.82,1.05,15.12,3.15,4.3,2.1,7.65,5.14,10.06,9.13,2.41,3.99,3.61,8.84,3.61,14.55s-1.2,10.47-3.61,14.5c-2.41,4.02-5.76,7.09-10.06,9.18-4.3,2.1-9.34,3.15-15.12,3.15s-10.73-1.05-15.07-3.15c-4.33-2.1-7.71-5.16-10.11-9.18-2.41-4.02-3.61-8.86-3.61-14.5s1.2-10.56,3.61-14.55c2.41-3.99,5.78-7.03,10.11-9.13s9.35-3.15,15.07-3.15Zm0,15.99c-1.03,0-1.93.29-2.68.88-.76.58-1.33,1.67-1.7,3.25-.38,1.58-.57,3.82-.57,6.71s.19,5.11.57,6.65c.38,1.55.94,2.63,1.7,3.25.76.62,1.65.93,2.68.93,1.1,0,2.01-.31,2.73-.93.72-.62,1.27-1.7,1.65-3.25.38-1.55.57-3.77.57-6.65s-.19-5.12-.57-6.71c-.38-1.58-.93-2.67-1.65-3.25-.72-.58-1.64-.88-2.73-.88Z"/>
    <path class="cls-1" d="m221.46,450.32v-51.6h21.36l.52,11.25c1.51-3.92,3.78-6.95,6.81-9.08,3.03-2.13,6.74-3.2,11.15-3.2,3.92,0,7.17.89,9.75,2.68,2.58,1.79,4.42,4.33,5.52,7.64,1.1-2.2,2.46-4.08,4.08-5.62,1.62-1.55,3.51-2.72,5.68-3.51,2.17-.79,4.59-1.19,7.27-1.19,3.44,0,6.36.67,8.77,2.01,2.41,1.34,4.25,3.3,5.52,5.88,1.27,2.58,1.91,5.73,1.91,9.44v35.29h-23.73v-29.1c0-2.34-.29-3.92-.88-4.75-.59-.83-1.5-1.24-2.73-1.24-1.1,0-2.03.28-2.79.83-.76.55-1.31,1.43-1.65,2.63-.35,1.21-.52,2.74-.52,4.59v27.04h-23.73v-29.1c0-2.34-.29-3.92-.88-4.75-.59-.83-1.5-1.24-2.73-1.24-1.1,0-2.03.28-2.79.83-.76.55-1.31,1.43-1.65,2.63-.35,1.21-.52,2.74-.52,4.59v27.04h-23.73Z"/>
    <path class="cls-1" d="m317.74,472v-73.27h21.57l1.14,22.7-2.68-2.68c.21-4.06,1.07-7.67,2.58-10.83,1.51-3.16,3.61-5.66,6.29-7.48,2.68-1.82,5.85-2.73,9.49-2.73,4.26,0,7.86,1.05,10.78,3.15,2.92,2.1,5.14,5.11,6.66,9.03,1.51,3.92,2.27,8.7,2.27,14.34s-.77,10.59-2.32,14.65c-1.55,4.06-3.8,7.16-6.76,9.29-2.96,2.13-6.54,3.2-10.73,3.2-5.02,0-8.87-1.63-11.56-4.9-2.68-3.27-4.37-7.38-5.06-12.33l2.06-3.1v40.97h-23.73Zm28.79-37.36c1.65,0,2.96-.67,3.92-2.01.96-1.34,1.44-4.04,1.44-8.1s-.48-6.78-1.44-8.15c-.96-1.38-2.27-2.06-3.92-2.06-1.03,0-1.93.36-2.68,1.08-.76.72-1.34,1.82-1.75,3.3-.41,1.48-.62,3.42-.62,5.83,0,2.2.17,4.06.52,5.57.34,1.51.89,2.65,1.65,3.41.76.76,1.72,1.13,2.89,1.13Z"/>
    <path class="cls-1" d="m409.99,451.36c-6.19,0-11.49-1.05-15.89-3.15-4.4-2.1-7.78-5.14-10.11-9.13-2.34-3.99-3.51-8.84-3.51-14.55s1.19-10.56,3.56-14.55c2.37-3.99,5.71-7.03,10.01-9.13,4.3-2.1,9.3-3.15,15.01-3.15s10.82,1.05,14.91,3.15c4.09,2.1,7.21,5.04,9.34,8.82,2.13,3.78,3.2,8.19,3.2,13.21,0,1.1-.05,2.24-.15,3.4-.1,1.17-.22,2.1-.36,2.79h-40.25v-8.77h29.93l-11.25,4.44c0-3.71-.33-6.54-.98-8.46-.65-1.92-2.08-2.89-4.28-2.89-1.44,0-2.63.35-3.56,1.03-.93.69-1.6,1.88-2.01,3.56-.41,1.69-.62,4.01-.62,6.96s.27,5.21.83,6.76c.55,1.55,1.36,2.58,2.43,3.1,1.07.52,2.42.77,4.08.77,1.79,0,3.18-.39,4.18-1.19,1-.79,1.67-1.87,2.01-3.25l19.09,5.16c-.76,3.37-2.44,6.18-5.06,8.41-2.62,2.24-5.73,3.91-9.34,5s-7.34,1.65-11.2,1.65Z"/>
    <path class="cls-1" d="m483.26,398.73v16h-44.68v-16h44.68Zm-13-17.54v48.09c0,2.34.5,4.01,1.5,5,1,1,2.56,1.5,4.7,1.5,1.38,0,2.58-.1,3.61-.31,1.03-.21,1.99-.55,2.89-1.03l1.03,13.42c-1.72,1.1-4.06,1.96-7.02,2.58-2.96.62-5.75.93-8.36.93-4.82,0-8.86-.6-12.13-1.81-3.27-1.2-5.74-3.15-7.43-5.83-1.69-2.68-2.53-6.26-2.53-10.73v-45.2l23.73-6.6Z"/>
    <path class="cls-1" d="m516.17,451.36c-6.19,0-11.49-1.05-15.89-3.15-4.4-2.1-7.78-5.14-10.11-9.13-2.34-3.99-3.51-8.84-3.51-14.55s1.19-10.56,3.56-14.55c2.37-3.99,5.71-7.03,10.01-9.13,4.3-2.1,9.3-3.15,15.01-3.15s10.82,1.05,14.91,3.15c4.09,2.1,7.21,5.04,9.34,8.82,2.13,3.78,3.2,8.19,3.2,13.21,0,1.1-.05,2.24-.15,3.4-.1,1.17-.22,2.1-.36,2.79h-40.25v-8.77h29.93l-11.25,4.44c0-3.71-.33-6.54-.98-8.46-.65-1.92-2.08-2.89-4.28-2.89-1.44,0-2.63.35-3.56,1.03-.93.69-1.6,1.88-2.01,3.56-.41,1.69-.62,4.01-.62,6.96s.27,5.21.83,6.76c.55,1.55,1.36,2.58,2.43,3.1,1.07.52,2.42.77,4.08.77,1.79,0,3.18-.39,4.18-1.19,1-.79,1.67-1.87,2.01-3.25l19.09,5.16c-.76,3.37-2.44,6.18-5.06,8.41-2.62,2.24-5.73,3.91-9.34,5s-7.34,1.65-11.2,1.65Z"/>
    <path class="cls-1" d="m548.47,450.32v-51.6h21.36l1.03,21.88-2.37-2.58c.48-4.26,1.55-7.91,3.2-10.94,1.65-3.03,3.87-5.35,6.66-6.97,2.79-1.62,6.1-2.42,9.96-2.42,3.44,0,6.36.67,8.77,2.01,2.41,1.34,4.25,3.3,5.52,5.88,1.27,2.58,1.91,5.73,1.91,9.44v35.29h-23.73v-29.41c0-2.2-.31-3.7-.93-4.49-.62-.79-1.55-1.19-2.79-1.19-1.1,0-2.01.26-2.73.77-.72.52-1.26,1.36-1.6,2.53-.35,1.17-.52,2.68-.52,4.54v27.24h-23.73Z"/>
    <path class="cls-1" d="m639.07,397.7c6.33,0,11.49.88,15.48,2.63,3.99,1.75,6.93,3.97,8.82,6.66,1.89,2.68,2.87,5.44,2.94,8.25l-21.88,6.4c0-2.75-.33-4.76-.98-6.04-.65-1.27-1.77-1.91-3.35-1.91-1.38,0-2.49.33-3.35.98-.86.66-1.48,1.79-1.86,3.41-.38,1.62-.57,3.87-.57,6.76s.26,5.19.77,6.71c.52,1.51,1.22,2.53,2.12,3.04.89.52,1.89.77,2.99.77,1.03,0,1.86-.26,2.48-.77.62-.52,1.12-1.29,1.5-2.32.38-1.03.6-2.27.67-3.71l21.26,6.6c-.07,2.89-1.17,5.56-3.3,8-2.13,2.44-5.11,4.42-8.93,5.93-3.82,1.51-8.34,2.27-13.57,2.27-6.19,0-11.52-1.05-16-3.15-4.47-2.1-7.89-5.14-10.27-9.13-2.37-3.99-3.56-8.84-3.56-14.55s1.19-10.56,3.56-14.55c2.37-3.99,5.71-7.03,10.01-9.13,4.3-2.1,9.3-3.15,15.01-3.15Z"/>
    <path class="cls-1" d="m698.93,451.36c-6.19,0-11.49-1.05-15.89-3.15-4.4-2.1-7.78-5.14-10.11-9.13-2.34-3.99-3.51-8.84-3.51-14.55s1.19-10.56,3.56-14.55c2.37-3.99,5.71-7.03,10.01-9.13,4.3-2.1,9.3-3.15,15.01-3.15s10.82,1.05,14.91,3.15c4.09,2.1,7.21,5.04,9.34,8.82,2.13,3.78,3.2,8.19,3.2,13.21,0,1.1-.05,2.24-.15,3.4-.1,1.17-.22,2.1-.36,2.79h-40.25v-8.77h29.93l-11.25,4.44c0-3.71-.33-6.54-.98-8.46-.65-1.92-2.08-2.89-4.28-2.89-1.44,0-2.63.35-3.56,1.03-.93.69-1.6,1.88-2.01,3.56-.41,1.69-.62,4.01-.62,6.96s.27,5.21.83,6.76c.55,1.55,1.36,2.58,2.43,3.1,1.07.52,2.42.77,4.08.77,1.79,0,3.18-.39,4.18-1.19,1-.79,1.67-1.87,2.01-3.25l19.09,5.16c-.76,3.37-2.44,6.18-5.06,8.41-2.62,2.24-5.73,3.91-9.34,5s-7.34,1.65-11.2,1.65Z"/>
  </g>
  <rect class="cls-1" x="737.79" y="428" width="15.8" height="15.8"/>
</svg>